<svg id="visual" viewBox="0 0 900 600" width="900" height="600" xmlns="http://www.w3.org/2000/svg" xmlns:xlink="http://www.w3.org/1999/xlink" version="1.1"><rect x="0" y="0" width="900" height="600" fill="#002233"></rect><path d="M0 386L12.5 382C25 378 50 370 75 378.3C100 386.7 125 411.3 150 417.2C175 423 200 410 225 402.5C250 395 275 393 300 410.3C325 427.7 350 464.3 375 479.3C400 494.3 425 487.7 450 471.8C475 456 500 431 525 417.8C550 404.7 575 403.3 600 396.3C625 389.3 650 376.7 675 395.5C700 414.3 725 464.7 750 468.5C775 472.3 800 429.7 825 405C850 380.3 875 373.7 887.5 370.3L900 367L900 601L887.5 601C875 601 850 601 825 601C800 601 775 601 750 601C725 601 700 601 675 601C650 601 625 601 600 601C575 601 550 601 525 601C500 601 475 601 450 601C425 601 400 601 375 601C350 601 325 601 300 601C275 601 250 601 225 601C200 601 175 601 150 601C125 601 100 601 75 601C50 601 25 601 12.5 601L0 601Z" fill="#0066FF" stroke-linecap="round" stroke-linejoin="miter"></path></svg>